# xmcd
#
# Track frame offsets:
#	150
#	16341
#	19880
#	36467
#	51614
#	66538
#	82093
#	96021
#	113938
#	127339
#	141075
#	160340
#	176600
#	184925
#	200764
#	213907
#	226658
#	241928
#	277145
#	291816
#
# Disc length: 4059 seconds
#
# Revision: 0
# Processed by: cddbd v1.5.2PL0 Copyright (c) Steve Scherf et al.
# Submitted via: EZCDAudioConverter 3.1.5.1
#
DISCID=3b0fd914
DTITLE=The Blues Brothers - The definitive collection
DYEAR=1992
DGENRE=
TTITLE0=The Blues Brothers - Opening: I can't turn you loose
TTITLE1=The Blues Brothers - Hey bartender
TTITLE2=The Blues Brothers - Messin'with the kid
TTITLE3=The Blues Brothers - (I got everything I need) Almost
TTITLE4=The Blues Brothers - Rubber biscuit
TTITLE5=The Blues Brothers - I don't know
TTITLE6=The Blues Brothers - Soul man
TTITLE7=The Blues Brothers - Who's making love
TTITLE8=The Blues Brothers - Do you love me/Mother Popcorn (You got to have a 
TTITLE8=mother for me)
TTITLE9=The Blues Brothers - Guilty
TTITLE10=The Blues Brothers - Riot in cell block #9
TTITLE11=The Blues Brothers - From the bottom
TTITLE12=The Blues Brothers - Going back to Miami
TTITLE13=The Blues Brothers - Eevrybody needs somebody to love
TTITLE14=The Blues Brothers - Expressway to your heart
TTITLE15=The Blues Brothers - Sweet home Chicago
TTITLE16=The Blues Brothers - Closing: I can't turn you loose
TTITLE17=The Blues Brothers - Shake your tailfeather
TTITLE18=The Blues Brothers ft. Aretha Franklin - Think
TTITLE19=The Blues Brothers - Gimme some lovin'
EXTD=
EXTT0=
EXTT1=
EXTT2=
EXTT3=
EXTT4=
EXTT5=
EXTT6=
EXTT7=
EXTT8=
EXTT9=
EXTT10=
EXTT11=
EXTT12=
EXTT13=
EXTT14=
EXTT15=
EXTT16=
EXTT17=
EXTT18=
EXTT19=
PLAYORDER=
